<svg xmlns="http://www.w3.org/2000/svg" baseProfile="tiny" viewBox="0 0 99 120">
  <path d="M76.6 37.1l-10 17.3c-.5.9-1.7 1.6-2.8 1.6h-10v2.8c0 1.1-.9 1.9-1.9 1.9h-2.5v2.9c4.6 1 8 5.1 8 10 0 .5 0 1-.1 1.5 0 0-.4 1.7-.6 2.2-.2.5-.9 1.7-1 1.8-1.8 2.8-5 4.7-8.6 4.7-3.3 0-6.3-1.6-8.3-4.2-.9-1.2-.6-2.9.6-3.8 1.2-.9 2.9-.6 3.8.6.9 1.2 2.3 1.9 3.8 1.9 1.9 0 3.5-1.1 4.2-2.7 1-1 .4-4.1-.6-5-.9-1.1-2.2-1.7-3.7-1.7h-.6c-1.5 0-2.7-1.2-2.7-2.7v-5.4h-2.4c-1.1 0-1.9-.9-1.9-1.9V56H30c-1.1 0-2.3-.7-2.8-1.6l-10-17.3c-.5-.9-.5-2.3 0-3.3l10-17.3c.5-.9 1.7-1.6 2.8-1.6h10V9.8c0-1.1.9-1.9 1.9-1.9h1.3v-6c0-1.1.9-1.9 1.9-1.9h3.4c1.1 0 1.9.9 1.9 1.9v6h1.3c1.1 0 1.9.9 1.9 1.9v5h10c1.1 0 2.3.7 2.8 1.6l10 17.3c.8 1.1.8 2.5.2 3.4z"/>
  <path d="M94.3 114.2H93c-1.1 0-1.9-.9-1.9-1.9v-9.5c0-1.1.9-1.9 1.9-1.9h1.3c2.7 0 4.7-1.2 4.7-2.9s-2-2.9-4.7-2.9H82.2l-25-20-6.4-4.4c-1.3-.4-2.6-.3-3.5.5l-1.1 1c-.9.7-1 2-.2 2.9.7.9 2 1 2.9.2l.8-.6c.3.1.9.3 1.5.8l.4.3 4.3 3.5L75.6 95H25.3l11.2-9.4c.9-.7 1-2 .2-2.9-.7-.9-2-1-2.9-.2L18.9 95H4.7C2 95 0 96.3 0 97.9c0 1.7 1.9 2.9 4.6 2.9 1 0 1.8.9 1.8 1.9v9.5c0 1.1-.8 1.9-1.8 1.9-2.7 0-4.6 1.2-4.6 2.9s2 2.9 4.7 2.9h89.7c2.7 0 4.7-1.2 4.7-2.9-.1-1.6-2.1-2.8-4.8-2.8zm-55.3-2c0 1.1-.9 1.9-1.9 1.9h-9.2c-1.1 0-1.9-.9-1.9-1.9v-9.5c0-1.1.9-1.9 1.9-1.9h9.2c1.1 0 1.9.9 1.9 1.9v9.5zm32.6 0c0 1.1-.9 1.9-1.9 1.9h-9.2c-1.1 0-1.9-.9-1.9-1.9v-9.5c0-1.1.9-1.9 1.9-1.9h9.2c1.1 0 1.9.9 1.9 1.9v9.5z"/>
</svg>
