<svg xmlns="http://www.w3.org/2000/svg" baseProfile="tiny" viewBox="0 0 92 120">
  <path d="M23.1 41.6H69c.3 9.4-2.2 17.7-8.8 24.5-1.8 1.9-2.4 4-2.4 6.4-.1 3.3 1.2 5 4.4 6.2 8.4 3 16.4 6.5 23.3 12.3 1.4 1.2 2.6 2.5 3.8 3.9 4.2 5.1 4.3 15.8-4.3 19.6-5.7 2.5-11.7 4-17.8 4.5-7.1.7-14.3 1.2-21.4 1.1-10.9-.1-21.9-.2-32.4-3.5-3.4-1.1-6.7-2.9-9.8-4.8-2.3-1.5-3.1-4.1-3.4-7-.6-5.8 2-9.9 6.1-13.5 6.9-5.9 15.1-9.6 23.5-12.9 2.5-1 4.1-2.6 4.5-5.2.4-2.4 0-4.6-1.9-6.5-7-6.9-9.6-15.3-9.3-25.1z"/>
  <path d="M41.5 21.4V3.9c0-3.3.6-3.9 3.8-3.9 5.2 0 5.2 0 5.2 5.3v16.1c.1 0 .2 0 .4.1.5-2.4 1-4.8 1.6-7.1.6-2.5 1.3-4.9 1.9-7.4.4-1.6 1.1-2 2.7-1.3 8.9 3.8 14.2 10.1 15.2 20 .1.8.7 2.1 1.3 2.3 3.3.9 4.4 3.3 4.6 6.3l.3 2.3H13.8c-.6-4.3.8-6.9 4.6-8.6.6-.3 1.2-1.4 1.3-2.1.8-9.9 6.2-16.3 15-20.1 1.6-.7 2.5-.4 2.9 1.4 1 4.4 2.1 8.7 3.1 13.1.1.4.2.9.4 1.3.1-.2.3-.2.4-.2z"/>
</svg>
