<svg xmlns="http://www.w3.org/2000/svg" baseProfile="tiny" viewBox="0 0 120 116">
  <path d="M118.6 1.7c-1.7-1.1-3.4-1.4-5.4-.9L81 11.7v10.5l31.9 10.5c1.7.6 3.7.3 5.4-.9 1.7-1.1 2.6-2.9 2.6-4.8V6.5c0-2-.9-3.7-2.3-4.8z"/>
  <path d="M74.2 22.2V11.7H35.8c-8.3 0-16.2 3.4-21.6 9.7l-12 13.4c-2 2.3-1.7 5.4.3 7.4 1.1.9 2.3 1.4 3.4 1.4 1.4 0 2.8-.6 4-1.7l11.9-13.4c3.4-4 8.5-6.3 13.9-6.3H38v9.1c-8 4-13.4 12-13.4 21.4v57.9c0 3.4 2.8 6 6 6h35.8c3.4 0 6-2.6 6-6V52.7C72.4 43.3 67 35 59 31.3v-9.1h15.2z"/>
</svg>
