<svg xmlns="http://www.w3.org/2000/svg" baseProfile="tiny" viewBox="0 0 380 79">
	<path fill="#37AB6B" d="M331.5 0h11.4v11.5h-11.4z"/>
	<path fill="#37AB6B" d="M346.5 21.7h11.4v11.5h-11.4z"/>
	<path fill="#37AB6B" d="M323.8 21.7h11.4v11.5h-11.4z"/>
	<path fill="#37AB6B" d="M359.9.5H380v20.1h-20.1z"/>
	<path fill="#127CC1" d="M35.6 14.7L19.9 38.3V14.7H0v63h14.6l15.7-23.6v23.6h19.9v-63H35.6zm6.8 56.5h-4.3V30.7l-27 40.5H7.8v-50h4.3v40.5l27-40.5h3.3v50z"/>
	<path fill="#127CC1" d="M91.3 14.7v23.1H80.9V14.7H61v63h19.9V54.6h10.4v23.1h19.9v-63H91.3zm12.1 56.5h-4.3V48.3h-26v22.9h-4.3v-50h4.3v22.9h26V21.2h4.3v50z"/>
	<path fill="#127CC1" d="M119.3 14.7v17.1H132v45.9h19.9V31.8h12.7V14.7h-45.3zm39.6 10.6h-14.8v45.9h-4.3V25.3H125v-4.1h33.9v4.1z"/>
	<path fill="#127CC1" d="M192.6 60.8v-6.4h12.7V38h-12.7v-6.4h13.6V14.7h-33.5v63h34.4V60.8h-14.5zm8.8 10.4h-20.9v-50h20v4.1h-15.7v18.8h14.8v4.1h-14.8V67h16.6v4.2z"/>
	<path fill="#127CC1" d="M238.3 25.3h-9.2v25.9h9.3c6.8 0 14.1-3.3 14.1-12.5 0-8.1-5.6-13.4-14.2-13.4zm.7 19.8h-2.2V31.7h2.2c2.8 0 5.8 2.7 5.8 6.7.2 3.7-2.4 6.7-5.8 6.7zm-.7-19.8h-9.2v25.9h9.3c6.8 0 14.1-3.3 14.1-12.5 0-8.1-5.6-13.4-14.2-13.4zm.7 19.8h-2.2V31.7h2.2c2.8 0 5.8 2.7 5.8 6.7.2 3.7-2.4 6.7-5.8 6.7zm.3-30.4H217v63h19.9V62c16.2 0 28.2-6.9 28.2-23.7 0-17.1-15-23.6-25.8-23.6zm-.9 40.8h-9.3v15.7h-4.3v-50h13.5c11.1 0 18.5 7 18.5 17.5 0 12.4-9.9 16.8-18.4 16.8zm-.1-30.2h-9.2v25.9h9.3c6.8 0 14.1-3.3 14.1-12.5 0-8.1-5.6-13.4-14.2-13.4zm.7 19.8h-2.2V31.7h2.2c2.8 0 5.8 2.7 5.8 6.7.2 3.7-2.4 6.7-5.8 6.7z"/>
	<path fill="#127CC1" d="M314.3 47.3c-.4 3.3-1.8 6.9-5.8 9.6-5.5 3.7-13.2 1.9-17.1-3.9-3.9-5.8-3-13.3 3.2-17.5 3.3-2.3 7-2.6 10.7-1.6l-.1-20.3c-7.4-1-14.6.4-22.1 5.4-15 10-18.5 29.8-8.3 45 10.1 15.2 29.7 19.7 44.8 9.5 8.2-5.5 11.2-11.6 13.2-18.6l-18.5-7.6zm8.3 11.5c-1.4 2.3-3.2 4.8-7.3 7.5-4.3 2.9-9 4.3-13.7 4.3-7.7 0-15.1-3.8-20-11.1-7.7-11.6-4.9-26.1 6.6-33.8 3.1-2.1 6-3.2 9.8-3.8l1.4-.2.1 4.3-1.1.2c-3.1.6-5.1 1.4-7.8 3.2-4.2 2.8-7.3 7.3-8.5 12.3-1.2 5.3-.1 10.8 3 15.5 6.2 9.4 18.4 11.8 27.6 5.6 3.1-2.1 4.6-3.8 6-6.1l.6-.9 3.9 1.9-.6 1.1z"/>
</svg>
