<?xml version="1.0" encoding="utf-8"?>
<svg version="1.1" baseProfile="tiny" id="Logotype" xmlns="http://www.w3.org/2000/svg" xmlns:xlink="http://www.w3.org/1999/xlink"
	 x="0px" y="0px" viewBox="0 0 380 79" xml:space="preserve">
<rect id="XMLID_55_" x="331.5" fill="#37AB6B" width="11.4" height="11.5"/>
<rect id="XMLID_54_" x="346.5" y="21.7" fill="#37AB6B" width="11.4" height="11.5"/>
<rect id="XMLID_53_" x="323.8" y="21.7" fill="#37AB6B" width="11.4" height="11.5"/>
<rect id="XMLID_52_" x="359.9" y="0.5" fill="#37AB6B" width="20.1" height="20.1"/>
<path id="XMLID_25_" fill="#127CC1" d="M35.6,14.7L19.9,38.3V14.7H0v63h14.6l15.7-23.6v23.6h19.9v-63H35.6z M42.4,71.2h-4.3V30.7
	l-27,40.5H7.8v-50h4.3v40.5l27-40.5h3.3V71.2z"/>
<path id="XMLID_22_" fill="#127CC1" d="M91.3,14.7v23.1H80.9V14.7H61v63h19.9V54.6h10.4v23.1h19.9v-63H91.3z M103.4,71.2h-4.3V48.3
	h-26v22.9h-4.3v-50h4.3v22.9h26V21.2h4.3V71.2z"/>
<path id="XMLID_18_" fill="#127CC1" d="M119.3,14.7v17.1H132v45.9h19.9V31.8h12.7V14.7H119.3z M158.9,25.3h-14.8v45.9h-4.3V25.3H125
	v-4.1h33.9V25.3z"/>
<path id="XMLID_20_" fill="#127CC1" d="M192.6,60.8v-6.4h12.7V38h-12.7v-6.4h13.6V14.7h-33.5v63h34.4V60.8H192.6z M201.4,71.2h-20.9
	v-50h20v4.1h-15.7v18.8h14.8v4.1h-14.8v18.8h16.6V71.2z"/>
<path id="XMLID_37_" fill="#127CC1" d="M238.3,25.3h-9.2v25.9h9.3c6.8,0,14.1-3.3,14.1-12.5C252.5,30.6,246.9,25.3,238.3,25.3z
	 M239,45.1h-2.2V31.7h2.2c2.8,0,5.8,2.7,5.8,6.7C245,42.1,242.4,45.1,239,45.1z M238.3,25.3h-9.2v25.9h9.3c6.8,0,14.1-3.3,14.1-12.5
	C252.5,30.6,246.9,25.3,238.3,25.3z M239,45.1h-2.2V31.7h2.2c2.8,0,5.8,2.7,5.8,6.7C245,42.1,242.4,45.1,239,45.1z M239.3,14.7H217
	v63h19.9V62c16.2,0,28.2-6.9,28.2-23.7C265.1,21.2,250.1,14.7,239.3,14.7z M238.4,55.5h-9.3v15.7h-4.3v-50h13.5
	c11.1,0,18.5,7,18.5,17.5C256.8,51.1,246.9,55.5,238.4,55.5z M238.3,25.3h-9.2v25.9h9.3c6.8,0,14.1-3.3,14.1-12.5
	C252.5,30.6,246.9,25.3,238.3,25.3z M239,45.1h-2.2V31.7h2.2c2.8,0,5.8,2.7,5.8,6.7C245,42.1,242.4,45.1,239,45.1z"/>
<path id="XMLID_43_" fill="#127CC1" d="M314.3,47.3c-0.4,3.3-1.8,6.9-5.8,9.6c-5.5,3.7-13.2,1.9-17.1-3.9c-3.9-5.8-3-13.3,3.2-17.5
	c3.3-2.3,7-2.6,10.7-1.6l-0.1-20.3c-7.4-1-14.6,0.4-22.1,5.4c-15,10-18.5,29.8-8.3,45c10.1,15.2,29.7,19.7,44.8,9.5
	c8.2-5.5,11.2-11.6,13.2-18.6L314.3,47.3z M322.6,58.8c-1.4,2.3-3.2,4.8-7.3,7.5c-4.3,2.9-9,4.3-13.7,4.3c-7.7,0-15.1-3.8-20-11.1
	c-7.7-11.6-4.9-26.1,6.6-33.8c3.1-2.1,6-3.2,9.8-3.8l1.4-0.2l0.1,4.3l-1.1,0.2c-3.1,0.6-5.1,1.4-7.8,3.2c-4.2,2.8-7.3,7.3-8.5,12.3
	c-1.2,5.3-0.1,10.8,3,15.5c6.2,9.4,18.4,11.8,27.6,5.6c3.1-2.1,4.6-3.8,6-6.1l0.6-0.9l3.9,1.9L322.6,58.8z"/>
</svg>
