<svg xmlns="http://www.w3.org/2000/svg" width="230" height="300" viewBox="0 0 230 300" class="p01-fill">
	<path fill="#1B76AA" d="M58.29 104.307h113.74c.623 23.308-5.39 44.014-21.812 60.76-4.51 4.6-5.883 9.906-6.068 15.798-.257 8.15 2.986 12.51 10.832 15.305 20.718 7.377 40.69 16.22 57.763 30.527 3.415 2.86 6.512 6.195 9.353 9.647 10.495 12.75 10.584 39.343-10.758 48.613-14.207 6.17-28.915 9.838-44.09 11.236-17.648 1.626-35.408 2.893-53.11 2.802-27.002-.137-54.18-.563-80.293-8.657-8.53-2.644-16.68-7.172-24.29-11.977-5.824-3.672-7.617-10.19-8.345-17.31-1.477-14.42 4.9-24.684 15.18-33.463C33.6 212.89 53.78 203.67 74.57 195.617c6.146-2.38 10.04-6.53 11.076-12.952.96-5.956-.088-11.44-4.667-16.068-16.926-17.102-23.52-38.083-22.69-62.29"/>
	<path fill="#00A16A" d="M103.655 54.573c0-14.604-.013-29.208.005-43.81.01-8.304 1.433-9.75 9.453-9.762 12.888-.014 12.918.017 12.92 13.336V54.57l.92.175c1.277-5.948 2.45-11.923 3.864-17.84 1.475-6.174 3.242-12.277 4.766-18.44.98-3.96 2.843-5.056 6.792-3.368 21.997 9.402 35.305 25.32 37.562 49.954.187 2.047 1.772 5.21 3.326 5.66 8.103 2.34 10.79 8.187 11.388 15.818.148 1.82.4 3.63.65 5.863H35.068c-1.586-10.744 2.01-17.13 11.43-21.62 1.59-.76 3.084-3.413 3.24-5.31 2.01-24.696 15.296-40.65 37.19-50.233 4.02-1.76 6.148-.887 7.15 3.433 2.53 10.91 5.17 21.8 7.777 32.692.262 1.097.603 2.176.908 3.263l.89-.042"/>
</svg>
